<svg xmlns="http://www.w3.org/2000/svg" xml:space="preserve" style="fill-rule:evenodd;clip-rule:evenodd;stroke-linejoin:round;stroke-miterlimit:2" viewBox="0 0 232 150"><path d="M88.523 65.127a12.9 12.9 0 0 1-6.854-1.923 14.263 14.263 0 0 1-5.001-5.141c-1.236-2.144-1.854-4.499-1.854-7.063l.141-34.971c0-.185.093-.279.279-.279h7.834c.186 0 .28.094.28.279V51c0 1.585.5 2.926 1.503 4.021 1.002 1.096 2.227 1.643 3.672 1.643 1.492 0 2.739-.547 3.742-1.643 1.002-1.095 1.503-2.436 1.503-4.021V16.029c0-.185.094-.279.281-.279h7.833c.185 0 .279.094.279.279l.14 34.971c0 2.611-.619 4.989-1.853 7.133-1.236 2.145-2.892 3.847-4.966 5.106-2.075 1.259-4.395 1.888-6.959 1.888M108.455 64.428c-.373 0-.56-.163-.56-.489L107.826.154c0-.373 18.674 43.152 18.674 43.152l-.35-26.997c0-.372.21-.559.629-.559h6.924c.28 0 .42.187.42.559l.07 60.696c0 .28-18.604-38.315-18.604-38.315l.489 25.178c0 .374-.209.56-.628.56h-6.995ZM148.809 55.825h4.336c1.724 0 3.183-.605 4.371-1.818 1.19-1.212 1.784-2.658 1.784-4.336V29.528c0-1.492-.548-2.786-1.644-3.882-1.096-1.095-2.39-1.619-3.881-1.574l-4.896.071-.07 31.682Zm-8.183 8.603c-.233 0-.349-.116-.349-.35l.139-48.048c0-.186.093-.28.28-.28l13.079-.07c2.563-.046 4.906.559 7.028 1.818a14.291 14.291 0 0 1 5.071 5.071c1.259 2.122 1.889 4.465 1.889 7.029v20.073c0 2.704-.654 5.164-1.958 7.378a14.79 14.79 0 0 1-5.246 5.281c-2.192 1.305-4.663 1.982-7.414 2.028l-12.519.07ZM173.567 64.428c-.187 0-.279-.116-.279-.35l.07-48.048c0-.186.093-.28.279-.28h22.452c.185 0 .279.117.279.349v7.834c0 .187-.094.279-.279.279h-14.338v10.911h14.338c.185 0 .279.094.279.279l.07 7.904c0 .187-.094.28-.28.28h-14.407v12.239h14.407c.186 0 .28.118.28.35v7.973c0 .187-.094.279-.28.279l-22.591.001ZM211.195 35.123h6.015c1.444 0 2.727-.536 3.847-1.609 1.118-1.072 1.678-2.378 1.678-3.916 0-1.492-.549-2.774-1.644-3.847-1.096-1.072-2.39-1.609-3.881-1.609h-6.015v10.981Zm-8.253 29.305c-.187 0-.279-.116-.279-.35l.139-48.049c0-.186.093-.28.279-.28h14.129c2.517 0 4.837.619 6.958 1.854a14.197 14.197 0 0 1 5.072 4.965c1.258 2.076 1.887 4.419 1.887 7.03 0 1.725-.256 3.276-.769 4.651-.513 1.376-1.118 2.541-1.818 3.497-.699.956-1.329 1.667-1.889 2.133 2.518 2.797 3.777 6.085 3.777 9.862l.07 14.337c0 .234-.117.35-.349.35h-7.904c-.187 0-.279-.07-.279-.21V49.741c0-1.679-.595-3.136-1.784-4.371-1.189-1.236-2.647-1.854-4.371-1.854h-4.616l-.07 20.562c0 .234-.095.35-.28.35h-7.903ZM88.522 127.152c-2.565 0-4.885-.641-6.959-1.923a14.073 14.073 0 0 1-4.93-5.141c-1.213-2.144-1.819-4.546-1.819-7.203l.07-21.822c0-2.563.595-4.906 1.783-7.029a13.912 13.912 0 0 1 4.896-5.105c2.074-1.282 4.394-1.924 6.959-1.924 2.565 0 4.872.63 6.924 1.889 2.052 1.259 3.683 2.949 4.896 5.07 1.212 2.123 1.818 4.489 1.818 7.099v3.218c0 .186-.094.279-.279.279h-7.833c-.187 0-.28-.093-.28-.279v-3.218c0-1.538-.502-2.867-1.503-3.986-1.004-1.119-2.251-1.679-3.743-1.679-1.678 0-2.961.572-3.847 1.714-.886 1.143-1.328 2.46-1.328 3.951v21.822c0 1.725.5 3.124 1.504 4.196 1.002 1.073 2.226 1.608 3.671 1.608 1.492 0 2.739-.594 3.743-1.783 1.001-1.189 1.503-2.528 1.503-4.021v-3.218c0-.185.093-.279.28-.279h7.903c.186 0 .28.094.28.279v3.218c0 2.657-.619 5.059-1.854 7.203-1.235 2.146-2.879 3.859-4.931 5.141s-4.359 1.923-6.924 1.923M148.809 117.85h4.337c1.724 0 3.182-.605 4.371-1.818 1.189-1.212 1.784-2.658 1.784-4.336V91.553c0-1.492-.549-2.785-1.644-3.882-1.096-1.095-2.39-1.619-3.882-1.573l-4.896.07-.07 31.682Zm-8.183 8.603c-.233 0-.349-.116-.349-.35l.139-48.048c0-.186.093-.28.281-.28l13.078-.07c2.564-.046 4.907.559 7.029 1.818a14.291 14.291 0 0 1 5.071 5.071c1.259 2.122 1.888 4.465 1.888 7.029v20.073c0 2.704-.654 5.164-1.958 7.378a14.796 14.796 0 0 1-5.245 5.281c-2.193 1.306-4.664 1.982-7.414 2.028l-12.52.07ZM173.567 126.453c-.187 0-.28-.116-.28-.35l.071-48.048c0-.186.092-.28.279-.28h22.451c.186 0 .28.117.28.349v7.834c0 .187-.094.28-.28.28h-14.337v10.91h14.337c.186 0 .28.094.28.279l.069 7.904c0 .187-.094.28-.279.28h-14.407v12.239h14.407c.185 0 .279.118.279.35v7.973c0 .187-.094.28-.279.28h-22.591ZM216.371 127.152c-2.518 0-4.815-.641-6.889-1.923a14.465 14.465 0 0 1-4.966-5.105c-1.236-2.121-1.854-4.465-1.854-7.03v-3.217c0-.233.116-.35.35-.35h7.833c.187 0 .281.117.281.35v3.217c0 1.539.512 2.857 1.538 3.952 1.025 1.096 2.261 1.643 3.707 1.643 1.445 0 2.681-.559 3.707-1.678 1.025-1.119 1.538-2.423 1.538-3.917 0-1.725-1.119-3.217-3.357-4.476-.747-.42-1.912-1.072-3.496-1.958a684.057 684.057 0 0 1-4.477-2.518c-2.565-1.492-4.466-3.368-5.7-5.63-1.236-2.261-1.853-4.814-1.853-7.658 0-2.611.629-4.954 1.887-7.03a14.085 14.085 0 0 1 5.002-4.93 13.146 13.146 0 0 1 6.749-1.819c2.471 0 4.744.619 6.819 1.854a14.076 14.076 0 0 1 4.965 4.966c1.236 2.075 1.854 4.395 1.854 6.959v5.735c0 .186-.094.279-.28.279h-7.833c-.187 0-.28-.093-.28-.279l-.07-5.735c0-1.632-.513-2.961-1.538-3.987-1.027-1.025-2.239-1.539-3.637-1.539-1.446 0-2.682.549-3.707 1.644-1.026 1.096-1.538 2.39-1.538 3.882 0 1.538.324 2.821.978 3.846.653 1.026 1.842 2.005 3.568 2.937.232.141.687.385 1.363.735.676.349 1.41.746 2.203 1.189.793.444 1.504.828 2.134 1.154.629.327 1.014.536 1.153.63 2.331 1.305 4.173 2.902 5.526 4.79 1.351 1.888 2.028 4.209 2.028 6.959 0 2.658-.619 5.048-1.853 7.169-1.237 2.123-2.892 3.801-4.966 5.035-2.076 1.236-4.371 1.854-6.889 1.854M121.044 119.387c1.4 0 2.623-.571 3.672-1.713 1.05-1.142 1.574-2.436 1.574-3.883l-.07-22.17c0-1.539-.49-2.843-1.469-3.917-.979-1.072-2.215-1.608-3.707-1.608-1.445 0-2.681.524-3.706 1.573-1.027 1.05-1.539 2.367-1.539 3.952v22.17c0 1.54.512 2.857 1.539 3.953 1.025 1.096 2.261 1.643 3.706 1.643m0 8.463c-2.518 0-4.815-.641-6.889-1.923a14.76 14.76 0 0 1-5-5.106c-1.259-2.121-1.889-4.464-1.889-7.03l.07-22.17c0-2.564.618-4.896 1.854-6.994a14.166 14.166 0 0 1 5-5.036c2.099-1.259 4.383-1.888 6.854-1.888 2.518 0 4.802.629 6.855 1.888a14.389 14.389 0 0 1 4.931 5.036c1.234 2.098 1.853 4.43 1.853 6.994l.07 22.17c0 2.566-.619 4.909-1.854 7.03a14.465 14.465 0 0 1-4.965 5.106c-2.075 1.282-4.372 1.923-6.89 1.923" style="fill:#fff;fill-rule:nonzero"/><path d="m41.612 127.86.001-.008-.005.009.004-.001M31.92 136.55c-.349 3.934-.108 8.218 1.897 11.722.175.305.923 1.865 1.482 1.524.224-.138.222-.594.227-.815a12.93 12.93 0 0 0-.083-1.61c-.28-2.796-.102-5.575.683-8.282.663-2.285 1.663-4.446 2.813-6.523.933-1.686 2.616-4.608 2.669-4.705-2.333.438-5.837.827-8.199.799-.712 2.729-1.239 5.073-1.489 7.89M33.256 32.406c-.031-.057-.064-.111-.095-.169l-.052-.104a14.516 14.516 0 0 1-.243-.483c-.17-.142-.315-.313-.471-.471.553 1.047 1.058 1.588 1.077 1.608-.048-.084-.096-.167-.143-.252l-.073-.129M8.76 98.251c-.057-.244-.25-.217-.385-.242-1.092-.199-2.188-.14-3.289-.081-.867.047-1.638.334-2.425.68-.601.265-1.168.577-1.719.915.073 1.004.2 2.006.385 2.997a34.734 34.734 0 0 0 1.094 4.281c.163-.263.335-.522.513-.778.706-1.016 1.706-1.735 2.647-2.545-.256-.813-.345-1.626-.71-2.371-.206-.423-.273-.893-.236-1.412 1.288-.737 2.629-1.3 4.125-1.444M8.763 93.219c-.924-.177-1.848-.352-2.774-.519-.339-.061-.687-.079-1.024-.148a10.695 10.695 0 0 0-3.564-.122 25.308 25.308 0 0 0-.525 5.591c.021-.015.039-.031.059-.046 1.006-.746 1.997-1.524 3.179-2.001.189-.076.362-.252.485-.424.364-.507.698-1.035 1.121-1.671 1.037-.422 2.261-.291 3.533-.231-.098-.306-.283-.389-.49-.429M3.132 91.03c.743-.098 1.499-.091 2.305-.136.318-.741.961-1.246 1.585-1.769.241-.202.484-.405.696-.635.212-.228.386-.491.618-.792.96.023 1.913.305 2.85.506.118-.234-.02-.302-.099-.382-1.325-1.34-2.999-1.906-4.812-2.144a14.17 14.17 0 0 0-2.046-.121c-1.132 1.766-2.016 3.658-2.544 5.652-.012.047-.02.095-.033.142.484-.137.975-.254 1.48-.321" style="fill:#bf0000;fill-rule:nonzero"/><path d="M69.319 83.675c-1.603-5.213-4.098-10.122-7.457-14.426-3.127-4.008-6.893-7.469-10.979-10.482-4.123-3.04-8.536-5.658-13.016-8.132-3.714-2.051-7.504-3.995-10.94-6.503-3.29-2.402-7.03-5.682-7.579-9.978-.248-1.946.162-4.42 1.536-5.909 1.367-1.481 3.516-2.021 5.475-1.8 1.047.118 2.105.424 2.993 1.006.924.603 1.414 1.362 1.941 2.303a6.728 6.728 0 0 0 1.101 1.425c-.59-1.118-1.228-2.805-1.37-5.066-.044-.695-.031-2.617 1.09-3.787s3.022-.012 3.022-.012-2.559-.447-3.079 2.9c0 0-.528 4.185 1.422 7.581l-.007-.008.064.113c.039.066.081.129.121.194.091.147.182.294.275.436l.157.231c.084.122.167.244.252.362l.168.23.067.091.181.237c.059.075.116.149.174.221l.24.295.053.065.121.142c.083.097.163.19.244.281.053.06.105.12.158.177l.056.064.017.017.026.029.023.022c.214.233.423.451.615.643a4.73 4.73 0 0 0 3.18 1.36c.411.015.83.008 1.208-.026.034-.003.067-.001.101-.005l.037-.004c.153-.018.284-.045.399-.079.044-.013.076-.029.114-.044.063-.024.129-.047.18-.074.04-.022.069-.046.104-.07.034-.024.071-.047.099-.072.031-.029.055-.058.079-.087.012-.015.03-.03.041-.045-.002 0-.002-.001-.003-.002.161-.23.133-.453.133-.453-1.498-1.818-2.388-3.826-2.521-5.366 1.821.057 2.892 1.308 3.106 3.087.219 1.824 2.084 2.559 3.461 2.145 1.377-.415 2.706-.207 2.706-.207-.658-.671-1.804-.476-1.804-.476.829-.646 1.877-.28 1.877-.28-1.439-1.633-4.387 2.023-5.143-2.462-.411-2.439-2.371-3.076-4.075-3.152.1-.298.251-.55.46-.745 2.041.749 3.837 1.201 5.571 1.454.038 1.233-.445 2.191-.445 2.191 1.106-.305 1.643-1.179 1.905-2.021.723.063 1.448.094 2.183.102-.06 1.03-.432 1.789-.432 1.789 1.224-.338 1.752-1.371 1.981-2.288 1.386-1.086 2.576-3.722.457-5.682a87.655 87.655 0 0 0-3.838-3.362 6.709 6.709 0 0 1-.776-.769c-4.544-5.158-11.532-4.883-14.205-4.555-.73.027-1.485.072-2.236.125l-.077.53c-.038.256-.08.511-.127.765-.014.068-.052.131-.082.196-.019-.054-.048-.108-.047-.161.002-.259-.006-.52.028-.776.023-.179.03-.357.033-.534l-.854.065c.003.443.008.885.007 1.328 0 .284-.036.567-.052.851a1.13 1.13 0 0 1-.425.835c-.088-.002-.101-.066-.109-.131-.069-.578-.18-1.151-.151-1.738a6.624 6.624 0 0 0-.045-1.082l-.709.059a8.24 8.24 0 0 1-.058 1.616c-.04.306-.124.607-.198.908-.047.19-.162.339-.323.484-.025-.059-.047-.091-.05-.124a3.22 3.22 0 0 1-.017-.31c-.001-.84 0-1.68.001-2.519l-.947.076c-.119.534-.167 1.083-.218 1.63-.023.252-.03.507-.101.836-.081-.196-.067-.323-.077-.445-.044-.555-.052-1.115-.137-1.663l-.049-.317c-.293.02-.567.036-.823.049l.084.664c.03.231.044.464.054.696.031.699.08 1.396.207 2.085.007.038.02.079.013.115-.017.074-.069.103-.166.08-.025-.087-.059-.182-.08-.28a12.262 12.262 0 0 1-.099-.535 2.74 2.74 0 0 0-.376-.972c-.135-.22-.271-.441-.402-.664-.21-.357-.4-.722-.492-1.13-.042.002-.085.007-.126.01l-.001.008c-.002.404.061.8.16 1.19.042.163.077.329.136.486.202.531.268 1.076.218 1.64-.019.216-.003.436-.003.672-.296.059-.552.174-.755.435-.042-.083-.072-.134-.094-.189-.066-.168-.115-.345-.197-.505a4.807 4.807 0 0 1-.385-1.056 9.904 9.904 0 0 0-.718-2.007c-.077-.16-.144-.325-.213-.49-.233.031-.467.062-.701.099.011.061.026.121.037.183.103.586.197 1.174.32 1.756.141.672.304 1.339.619 1.957.07.136.151.272.14.447l-.728.741c-.08.081-.171.115-.302.06-.032-.065-.074-.144-.108-.226-.078-.192-.151-.386-.228-.578a2.515 2.515 0 0 0-.634-.92 2.692 2.692 0 0 1-.662-.945c-.15-.354-.329-.696-.613-.969-.012.019-.029.039-.025.054a.711.711 0 0 0 .062.182c.207.378.327.784.433 1.2.059.234.162.471.302.667.362.508.456 1.088.537 1.696-.265.205-.511.429-.831.503-.035-.02-.052-.023-.057-.032-.188-.389-.5-.64-.872-.85-.434-.244-.776-.602-1.055-1.015a11.691 11.691 0 0 0-1.414-1.748c-.08-.08-.126-.193-.197-.284-.034-.043-.09-.069-.194-.145.043.167.064.265.094.36.292.914.664 1.795 1.076 2.661.117.245.214.499.323.748.089.201.16.414.279.596a.996.996 0 0 1 .156.738c-.008.05-.014.101-.017.123l-.788.474c-.005-.001-.035-.003-.052-.019-.65-.614-1.372-1.143-2.05-1.724-.402-.345-.785-.713-1.178-1.07-.105-.095-.212-.187-.379-.335.053.13.066.198.103.247.368.478.612 1.018.801 1.587.098.294.201.588.32.875.13.309.265.619.427.912.197.359.285.744.362 1.139l-.522.31c-.039-.021-.091-.037-.123-.072-.425-.452-.948-.759-1.503-1.015-.495-.228-.983-.468-1.435-.772a2.59 2.59 0 0 1-.509-.414c-.324-.368-.624-.759-.931-1.142-.023-.028-.031-.069-.046-.103l-.002.007c-.056.057-.039.121-.008.178.27.485.501.99.833 1.443.498.678.98 1.367 1.528 2.006.326.379.476.824.553 1.303.015.09.025.176-.029.262-.186.294-.367.593-.55.889-.02.032-.05.058-.091.104a3.698 3.698 0 0 1-.883-.351c-.134-.078-.257-.176-.396-.243-.433-.209-.741-.543-1.022-.925-.359-.49-.755-.952-1.137-1.426-.023-.028-.057-.047-.136-.111.058.127.089.201.125.273.235.475.481.946.704 1.426.171.367.37.71.646 1.008.105.113.191.244.292.362.194.225.382.456.59.667.21.214.407.431.523.714.051.124.039.231-.046.323a1.138 1.138 0 0 1-.234.197c-.172.11-.352.21-.559.332-.332-.038-.665-.178-.982-.353a.731.731 0 0 1-.221-.212c-.323-.443-.727-.801-1.146-1.151-.395-.329-.772-.68-1.163-1.02l-.029.112a.164.164 0 0 0 .014.022c.213.324.428.646.639.972.338.521.658 1.053 1.014 1.562.221.317.486.603.743.894.112.126.216.252.301.4.102.178.232.339.358.518l-.086.255a1.196 1.196 0 0 0-.051.687.814.814 0 0 1-.034.49c-.08.23-.125.471-.192.738-.474-.081-.932-.28-1.38-.492-.442-.21-.86-.47-1.267-.695.331.317.685.655 1.036.996.12.117.246.232.343.366.244.337.516.647.808.942.183.184.345.385.467.616.071.133.07.133.065.393-.18.016-.344-.077-.518-.092-.18-.015-.358-.051-.535-.086-.165-.033-.327-.081-.492-.115-.173-.035-.348-.062-.614-.109.103.093.133.127.17.153.441.315.888.624 1.324.946.412.305.744.676.93 1.168.071.187.084.369.072.596-.465-.174-.898-.343-1.371-.316a7.135 7.135 0 0 0-.462.04.31.31 0 0 0-.198.111c.11.016.22.036.331.049.182.022.343.083.504.179.454.269.827.617 1.127 1.049.281.403.578.795.856 1.2.122.178.215.376.339.597-.289.052-.545.059-.798.078-.245.017-.491.023-.737.025-.251.002-.502-.071-.831-.007.205.091.339.171.484.211.747.201 1.365.608 1.899 1.156.18.185.357.375.546.551.275.255.425.578.555.937-.178.086-.36.041-.534.048-.18.009-.362.001-.543-.006a14.106 14.106 0 0 1-.543-.03 2.285 2.285 0 0 1-.176-.022c.069.094.134.192.204.285.689.229 1.332.562 1.986.871.367.174.656.455.894.786.005.007-.003.025-.01.064-.076.01-.16.03-.244.032-.394.009-.788.016-1.181.023.091.105.18.211.272.315.225.068.446.149.662.244.367.161.74.308 1.11.462.057.023.11.051.221.102-.332.131-.641.238-.946.337.088.092.173.187.261.279.52-.016 1.026.068 1.531.178a.488.488 0 0 1 .36.261c.046.088.104.17.166.27-.306.17-.624.292-.942.409.118.116.24.229.359.343l.436.006c.142.001.285-.001.426-.011.562-.039 1.034.182 1.465.513.027.02.035.065.062.119-.144.135-.328.197-.501.271a7.908 7.908 0 0 1-.653.239c.116.104.233.207.351.31.417.047.833.103 1.251.143.331.031.541.211.69.484-.176.211-.398.38-.627.484.138.112.277.223.418.335.326-.034.652-.059.977-.106.24-.035.431.022.589.207.108.127.225.246.341.374-.074.171-.227.226-.35.311a3.588 3.588 0 0 1-.311.185c.085.065.173.129.258.193.206-.04.411-.076.615-.124.192-.045.344-.025.501.107.177.147.379.262.593.406-.048.056-.076.117-.125.145-.165.095-.336.183-.506.269.087.063.178.125.266.188a6.26 6.26 0 0 0 1.323-.246c.196.119.341.261.473.45-.049.057-.086.127-.145.166-.181.122-.37.234-.558.348-.013.008-.031.015-.045.023l.128.09c.293-.062.587-.122.874-.204.333-.095.654-.137.983.004.089.038.187.058.308.095-.165.228-.373.361-.561.513-.145.118-.308.232-.489.362l.104.072c.402-.082.726-.282 1.085-.397.11.217.18.423.14.667-.026.162-.002.332 0 .529l-.027.015c1.866 1.255 3.725 2.472 5.459 3.667 2.764 1.906 5.619 3.688 8.282 5.735 2.41 1.852 4.709 3.867 6.756 6.117 3.54 3.889 6.55 8.633 7.171 13.96.515 4.406-.604 9.815-3.468 13.314-1.295 1.583-6.249 5.034-11.775 6.509-2.992.59-6.102.711-9.104.243-3.328-.52-6.864-1.792-9.026-4.513-2.494-3.138-2.587-7.822-.928-11.37.931-1.993 2.443-3.717 4.401-4.749 2.182-1.15 4.706-1.446 7.126-1.039 2.373.398 4.742 1.313 6.427 3.089 1.44 1.517 2.284 3.471 2.643 5.516.75 4.276 0 7.288-1.36 11.353 6.15-2.024 10.362-6.342 11.837-7.92.949-3.658.956-4.545.687-8.054-.368-4.791-3.117-8.969-6.612-12.247-2.491-2.337-5.489-4.108-8.765-5.092-6.455-1.939-13.573-.909-19.449 2.303-4.088 2.234-8.037 5.514-10.72 9.477a14.424 14.424 0 0 1 3.409-.089c1.833.17 3.466.838 5.021 1.765.403.24.809.475 1.216.709.02.011.06-.013.137-.032-.799-.912-1.782-1.595-2.685-2.434.402-.377.753-.726 1.127-1.049.349-.3.723-.572 1.109-.873-.352-.468-.876-.701-1.38-.937-.509-.24-1.05-.415-1.583-.603-.517-.181-1.067-.268-1.768-.465.281-.099.362-.151.444-.152 2.27-.019 4.449.352 6.389 1.619.415.271.775.632 1.143.97.321.296.617.618.973.894-.179-.718-.77-1.212-1.051-1.932l1.539-.627c-.289-.622-.804-.985-1.274-1.362a8.212 8.212 0 0 0-1.495-.97c-.553-.271-1.159-.433-1.772-.654.084-.057.126-.111.168-.111 1.607-.003 3.118.354 4.466 1.257.678.454 1.326.952 1.985 1.436l1.374 3.7c-.493-.477-1.067-.875-1.629-1.274-.519-.368-.975-.844-1.664-.991.053.096.096.199.161.287.148.203.298.405.462.595 1.081 1.258 1.502 2.727 1.432 4.366-.018.411-.106.74-.592.897-1.248-2.138-2.825-3.963-5.212-5.11.126.169.187.278.272.361 1.29 1.252 2.103 2.806 2.816 4.423a3 3 0 0 1 .208 1.843 8.668 8.668 0 0 0-.155 1.024c-.04.536-.273.95-.746 1.319-.112-.15-.237-.277-.315-.429a9.822 9.822 0 0 0-1.393-2.007 6.98 6.98 0 0 0-2.592-1.835c-.086-.036-.203.003-.309.015 1.701 1.327 2.72 3.061 3.093 5.186.087.494.2.985.309 1.476.117.528.036 1.047.012 1.712-.221-.191-.342-.271-.43-.378a14.335 14.335 0 0 1-.57-.749c-.615-.853-1.454-1.372-2.453-1.65-.449-.124-.903-.232-1.399-.236.142.08.278.169.424.239 1.333.638 2.313 1.596 2.802 3.022.153.444.365.868.538 1.306.055.138.072.29.126.519-1.144-.47-2.226-.833-3.407-.758.752.303 1.526.556 2.168 1.058.667.522 1.31 1.075 1.956 1.624.111.094.185.232.3.381-.121.073-.193.152-.265.154-1.311.03-2.545.356-3.72.926-.079.038-.179.031-.27.044l.03.006c.224.22.472.072.713.049.78-.074 1.56-.164 2.342-.213.582-.036 1.114.114 1.563.527.204.188.474.304.696.476.139.108.242.26.395.43-.265.235-.563.219-.813.314-.264.1-.537.179-.797.288-.261.108-.51.245-.766.364-.251.117-.482.263-.856.558.405-.076.609-.122.816-.153.683-.1 1.365-.214 2.051-.285.649-.067 1.237.17 1.798.464.099.052.159.174.279.312-.388.399-.707.813-1.14 1.133a6.138 6.138 0 0 0-1.077 1.015c.612-.227 1.22-.466 1.838-.678.622-.215 1.253-.403 1.861-.597l1.104.681c-.282.592-.758 1.064-1.059 1.641-.304.58-.589 1.17-.901 1.792.272.05.312-.132.401-.222.109-.111.191-.248.288-.372.774-.991 1.713-1.745 3.01-2.08.587.41 1.298.434 2.093.342-.035.449-.26.757-.378 1.097-.124.356-.242.714-.347 1.076a14.47 14.47 0 0 0-.256 1.004c-.077.364-.134.732-.091 1.138.075-.117.162-.229.224-.353.564-1.136 1.395-2.087 2.135-3.101.188-.257.442-.333.776-.265.171.613.365 1.233.516 1.864.153.635.263 1.282.393 1.922.056-.01.09-.009.116-.023.024-.012.052-.037.058-.061.238-.976.473-1.952.721-2.978l1.254-.177c.614.751.99 1.559 1.106 2.491.043.338.167.666.258.998.004.014.048.018.132.045.139-.375.162-.776.211-1.164.046-.372.065-.753.043-1.126-.023-.401-.108-.798-.163-1.172.251-.238.439-.117.607.033.874.776 1.693 1.597 2.145 2.709.044.109.103.212.247.502.062-1.213-.304-2.136-.625-3.11l1.328-.225c1.263.665 1.773 1.996 2.744 3.133-.139-1.32-.693-2.362-.904-3.542.345-.232.76-.285 1.141-.174.659.193 1.305.432 1.799.973.477.523 1.009.997 1.613 1.585-.181-1.218-1.026-1.987-1.357-2.972.717-.581 1.458-.565 2.245-.262.66.254 1.201.672 1.731 1.12.197.167.344.424.735.487-.4-.768-.909-1.353-1.345-1.957.128-.27.323-.228.501-.197a6.793 6.793 0 0 1 3.061 1.378c.237.187.464.385.735.611-.055-.582-.219-.904-.858-1.535-.399-.395-.846-.742-1.318-1.15.127-.067.244-.163.374-.19a3.38 3.38 0 0 1 1.858.141c.862.31 1.679.699 2.33 1.43-.046-.151-.073-.311-.14-.451-.267-.55-.688-.975-1.172-1.332-.4-.296-.824-.56-1.238-.838.299-.483.417-.566.896-.692.883-.231 1.676.031 2.443.435.298.158.553.402.938.48-.523-1.037-1.426-1.536-2.402-1.98.12-.418.447-.629.763-.797.712-.38 1.473-.534 2.275-.299a4.321 4.321 0 0 1 1.539.814c.073-.272-.109-.463-.255-.637-.454-.538-1.009-.941-1.694-1.141-.209-.061-.421-.112-.62-.165-.135-.275-.034-.456.208-.533a14.18 14.18 0 0 1 1.184-.306 1.387 1.387 0 0 1 1.006.134c.531.304 1.052.623 1.63.966-.236-.647-.785-.985-1.22-1.413-.469-.461-1.042-.688-1.683-.659-.085-.279.093-.312.233-.349.363-.094.73-.173 1.107-.261-.019-.308-.276-.171-.413-.232-.134-.061-.287-.081-.427-.118.049-.369.384-.34.552-.511.151-.153.312-.296.487-.463.206.121.397.226.579.342.176.113.345.239.6.28l-.902-1.238.418-1.013c.665-.156 1.252.058 1.92.272-.324-.671-.998-.666-1.426-1.06.019-.634.538-1.156.558-1.994-.472.546-.827.936-1.159 1.345-.251.31-.552.491-.949.542-.274.035-.542.111-.812.169.084.07.162.159.259.188.171.052.356.058.517.081.143.329.017.538-.223.656-.249.124-.527.188-.79.284-.567.206-1.108.457-1.518.918.079-.215.156-.434.247-.647.183-.425.443-.83.551-1.273.324-1.326 1.299-2.037 2.383-2.664l-.183-.206-1.202.391c.036-1.241.624-1.988 1.658-2.436.246-.106.549-.099.789-.371-.547-.108-1.029.073-1.576.095.027-.484-.014-.907.15-1.331.112-.289.229-.614.202-.91-.062-.668.017-1.313.131-1.963.064-.376.048-.759-.119-1.11-.17-.356-.178-.719-.151-1.103a3.753 3.753 0 0 0-.053-.934c-.228-1.265.116-1.928 1.31-2.468.107-.048.215-.092.44-.187-.699-.215-1.197.099-1.709.227-.476-1.168-.36-1.612.661-2.482-.334-.168-.608.071-.872.082-.067-.049-.138-.074-.16-.122-.634-1.423-.118-1.82 1.414-2.248.238-.067.405.12.437.424-.236.283-.688.401-.837.845.412.093.812-.217 1.285.046l.378 1.074c-.567.352-1.256.443-1.562 1.148.364-.066.692-.157 1.025-.175.306-.018.618.043.92.069.25.372.217.753.295 1.157-.776.42-1.723.609-2.199 1.723.764-.526 1.451-.644 2.176-.615.321.013.539.134.633.451.088.293.224.579.132.941-.779.052-1.588-.017-2.249.581.2.211.426.067.614.112.213.05.437.069.64.147.201.078.39.201.568.326.169.12.317.269.544.465-.381.166-.647-.033-.91-.004-.311.034-.625.058-.93.124-.26.057-.509.166-.854.283 1.947.457 1.947.457 2.335.917-1.244.155-2.164.505-2.903 1.149.231-.031.361-.055.492-.066.435-.036.871-.1 1.306-.092.384.007.734.176.999.466.067.073.061.212.108.397-.706.04-1.363.016-2.117.333.721.191 1.386.057 1.922.482.163.613-.327 1.148-.304 1.937.788-1.368 1.206-2.708 1.734-4.011.079.05.155.072.161.107.131.649.316 1.277.601 1.878.105.222.163.476.194.722.036.278-.003.566.031.844.029.239.116.47.183.731-.328-.015-.355-.276-.483-.429-.117-.139-.223-.289-.433-.566.219.968.448 1.761.568 2.571.12.807.479 1.618.12 2.543-.514-.564-.78-1.235-1.37-1.648-.011.087-.042.152-.022.188.457.807.671 1.686.808 2.595.084.558.216 1.11.339 1.662.085.374.119.739-.034 1.093-.24.04-.274-.14-.341-.265-.29-.545-.559-1.103-1.236-1.649 1.009 1.986.83 3.818.268 5.757-.255-.273-.265-.565-.382-.802-.125-.254-.233-.516-.364-.766a4.15 4.15 0 0 0-.462-.711c.158.91.366 1.807.298 2.734-.066.896-.045 1.803-.375 2.662-.271-.033-.231-.226-.272-.356-.057-.179-.079-.368-.133-.549-.042-.143-.11-.279-.175-.441-.245.151-.135.352-.156.512-.02.155-.001.314-.01.471a7.05 7.05 0 0 1-.157 1.119 9.34 9.34 0 0 1-.142.547c-.044.151-.085.304-.151.446-.075.162-.176.313-.349.613l-.226-1.916c-.282.002-.219.194-.243.319-.141.741-.259 1.486-.42 2.222-.175.796-.459 1.554-.962 2.226.241-.817.081-1.614-.064-2.409-.06-.331-.137-.665-.36-.949-.21.132-.11.293-.11.427-.002.849-.021 1.665-.534 2.432-.359.536-.52 1.203-.783 1.806-.055.126-.171.226-.315.322.2-1.076.051-2.105-.175-3.248-.263.266-.212.494-.249.69-.11.583-.152 1.18-.586 1.661-.133.147-.15.405-.202.616-.231.92-.602 1.778-1.202 2.765.047-.412.07-.635.099-.857.032-.249.053-.501.107-.746.193-.872-.046-1.668-.422-2.585-.14.374-.07.653-.128.908-.116.513-.127 1.071-.661 1.394-.212.129-.187.381-.221.596-.153.956-.42 1.874-.872 2.734-.095-.563.093-1.1.164-1.643.143-1.101-.095-2.047-.926-2.821-.221.094-.124.253-.1.385.05.278.123.552.16.831.033.248.054.501.04.749-.02.376-.191.651-.585.758-.268.073-.528.177-.822.277-.191 1.211-.291 2.432-.93 3.529-.001-.166-.009-.332-.001-.498.061-1.173-.189-2.309-.426-3.445-.05-.241-.178-.468-.291-.691-.209-.41-.433-.812-.758-1.185.013.613.022 1.226.04 1.839.012.411.011.817-.269 1.192l-1.026.509c.031 1.153-.275 2.236-.7 3.287-.104.258-.269.491-.416.732.082-.562.161-1.125.247-1.687.132-.857.091-1.683-.324-2.475-.173-.33-.246-.712-.393-1.058-.121-.288-.278-.563-.432-.836-.042-.073-.132-.119-.271-.24.018.564.051 1.054.046 1.544-.006.499-.049.997-.076 1.524l-1.317.266c-.384 1.81-.737 3.586-1.521 5.428-.011-.266-.028-.347-.015-.423.239-1.373.248-2.749.104-4.132-.059-.562-.011-1.141-.128-1.688-.156-.732-.424-1.44-.644-2.157-.305.044-.218.234-.227.362-.059.814-.095 1.631-.171 2.444-.038.403-.148.799-.225 1.198l-.869.399-1.384 4.47-.115-.018c-.002-.143-.018-.288-.005-.43.053-.562.093-1.128.179-1.686.271-1.746-.047-3.439-.433-5.126a2.261 2.261 0 0 0-.163-.44c-.02-.043-.091-.063-.197-.131-.142 1.326-.293 2.626-.771 3.922-.244.002-.485.013-.725.004-.243-.01-.485-.039-.774-.063-.083 1.207.166 2.339.218 3.652-.339-.431-.385-.808-.514-1.144-.147-.381-.279-.768-.412-1.154-.122-.357-.246-.714-.352-1.075a18.696 18.696 0 0 1-.286-1.094 17.41 17.41 0 0 1-.229-1.108c-.067-.402-.107-.809-.162-1.214-.051-.364-.011-.745-.201-1.185-.714 1.049-.832 2.215-1.119 3.34l-1.153.03c-.154 1 .006 1.927.161 2.846.148.879.375 1.744.534 2.628-.487-.807-.824-1.679-1.137-2.559-.336-.947-.679-1.892-.986-2.848-.143-.447-.224-.915-.304-1.379-.102-.588-.17-1.182-.263-1.772-.027-.177-.091-.349-.146-.553-.573.562-.855 1.281-1.327 3.332-.751-.075-1.414-.436-2.125-.716-.226.32-.195.674-.195 1.004-.001 1.511.075 3.015.526 4.476.087.281.122.577.178.867-.062-.049-.129-.096-.165-.159-1.014-1.815-1.599-3.75-1.561-5.843.009-.497.126-.993.188-1.49.051-.402.112-.805.14-1.209.039-.563.055-1.128.072-1.693.009-.306.104-.619-.049-.92-.379.224-.381.222-.886 1.094-.235.407-.47.815-.683 1.235-.225.444-.422.902-.647 1.388-.835-.051-1.284-.736-1.883-1.134-.619.895-1.099 2.29-1.189 3.471-.09 1.163-.077 2.322.154 3.471.006.027.01.055.015.083a35.904 35.904 0 0 0 3.829 2.023c4.346 1.965 10.111 3.208 14.902 3.173a53.264 53.264 0 0 0 8.309-.825l.005-.024a48.594 48.594 0 0 0 7.886-2.238c5.113-1.93 9.744-4.792 13.311-8.979 7.369-8.65 9.622-20.787 6.298-31.599" style="fill:#bf0000;fill-rule:nonzero"/><path d="M14.873 112.474c.39-.944.696-1.923 1.07-2.973-1.183.847-1.974 1.951-2.961 2.899-.65-.224-.988-.898-1.633-1.074-1.131 1.756-1.908 4.261-1.827 6.857a31.492 31.492 0 0 0 4.857 3.712 18.66 18.66 0 0 1-.562-2.337c-.196-1.064-.219-2.128-.015-3.186.255-1.326.551-2.639 1.071-3.898" style="fill:#bf0000;fill-rule:nonzero"/><path d="M9.935 111.688c.263-.569.486-1.147.642-1.761.237-.933.785-1.705 1.471-2.375.269-.261.544-.514.888-.837-.623-.104-1.032.216-1.46.414-.481.225-.935.508-1.391.783-.427.257-.617.789-1.131 1.015-.644-.826-1.258-1.65-1.758-2.531.247-.662.724-1.081 1.127-1.557.398-.472 1.007-.721 1.368-1.264-.11-.038-.169-.081-.217-.071-.552.119-1.104.245-1.654.372a.857.857 0 0 0-.265.096 6.027 6.027 0 0 0-.531.38c-.487.394-.949.823-1.455 1.189a11.474 11.474 0 0 0-2.655 2.668c.94 2.499 2.192 4.885 3.812 6.946a27.005 27.005 0 0 0 2.253 2.504c-.201-2.033.06-4.029.956-5.971" style="fill:#bf0000;fill-rule:nonzero"/><path d="M21.756 81.047c.175-.111.311-.24.471-.289" style="fill:#fff;fill-rule:nonzero"/></svg>